<mxfile host="app.diagrams.net" modified="2024-07-25T05:49:36.498Z" agent="Mozilla/5.0 (Windows NT 10.0; Win64; x64; rv:128.0) Gecko/20100101 Firefox/128.0" version="24.0.5" etag="xP3HGV5fVrMEuT5XH1mx" type="github">
  <diagram name="Страница — 1" id="dzNQpzoxakBB_2Q4iS0N">
    <mxGraphModel>
      <root>
        <mxCell id="0" />
        <mxCell id="1" parent="0" />
      </root>
    </mxGraphModel>
  </diagram>
</mxfile>
